<?xml version="1.0"?>
<svg xmlns="http://www.w3.org/2000/svg" id="Layer_1" data-name="Layer 1" viewBox="0 0 512 512" width="512" height="512"><title>location map  mobile</title><path d="M302.82,327.5H271.46a34,34,0,0,1-34-34v-6.68l27.32-27.32H407.46v34a34,34,0,0,1-34,34Z" style="fill:#e48e66"/><path d="M237.46,152.36V61.45h170V259.5H264.78l5.97-5.97a25.989,25.989,0,0,0,0-36.74l-6.12-6.12-27.17,21.51Zm124.09,9.69a41.5,41.5,0,0,0,2.68-16.94c-1.19-21.28-17.96-40.3-41.3-40.56s-40.53,18.39-42.19,39.64a41.36,41.36,0,0,0,2.31,17,44.65,44.65,0,0,0,9.39,15.26l29.34,31.96,30.04-31.3A44.7,44.7,0,0,0,361.55,162.05Z" style="fill:#f8ec7d"/><path d="M407.46,55.5v5.95h-170V55.5a34,34,0,0,1,34-34h102A34,34,0,0,1,407.46,55.5Z" style="fill:#e48e66"/><path d="M364.23,145.11a41.5,41.5,0,0,1-2.68,16.94,44.7,44.7,0,0,1-9.73,15.06l-30.04,31.3-29.34-31.96a44.65,44.65,0,0,1-9.39-15.26,41.36,41.36,0,0,1-2.31-17c1.66-21.25,18.85-39.9,42.19-39.64S363.04,123.83,364.23,145.11Zm-23.81-.76a17.937,17.937,0,1,0-18.13,18.21A18.182,18.182,0,0,0,340.42,144.35Z" style="fill:#6fe3ff"/><path d="M322.69,125.74a18.418,18.418,0,1,1-18.13,18.21A18.182,18.182,0,0,1,322.69,125.74Z" style="fill:#f8ec7d"/><path d="M237.46,286.82v6.68a34,34,0,0,0,34,34h31.36v31.38a34.637,34.637,0,0,1-34.63,34.63v25.13H133.12V251.83a34.621,34.621,0,0,1,9.92-24.27l94.42-75.2v79.82l27.17-21.51,6.12,6.12a25.989,25.989,0,0,1,0,36.74l-5.97,5.97Z" style="fill:#f7caa5"/><path d="M290.7,428.64V480.5a10,10,0,0,1-10,10H114.54a10,10,0,0,1-10-10V428.64a10,10,0,0,1,10-10H280.7A10,10,0,0,1,290.7,428.64ZM155.2,455.43a13,13,0,1,0-12.99,13.42A13.214,13.214,0,0,0,155.2,455.43Z" style="fill:#e48e66"/><ellipse cx="142.21" cy="455.43" rx="12.99" ry="13.42" style="fill:#f8ec7d"/><path d="M308.82,358.88V333.5h64.64a40.045,40.045,0,0,0,40-40V55.5a40.045,40.045,0,0,0-40-40h-102a40.045,40.045,0,0,0-40,40v93.972L139.3,222.867a5.934,5.934,0,0,0-.54.487A40.377,40.377,0,0,0,127.12,251.83V412.64H114.54a16.019,16.019,0,0,0-16,16V480.5a16.019,16.019,0,0,0,16,16H280.7a16.019,16.019,0,0,0,16-16V428.64a16.019,16.019,0,0,0-16-16h-6.51V399.068A40.692,40.692,0,0,0,308.82,358.88Zm64.64-37.38h-102a28.032,28.032,0,0,1-28-28v-4.195L267.266,265.5H401.46v28A28.032,28.032,0,0,1,373.46,321.5ZM274.992,212.547l-6.12-6.12a6,6,0,0,0-7.967-.461L243.46,219.779V67.45h158V253.5H278.567A32.031,32.031,0,0,0,274.992,212.547ZM271.46,27.5h102a28.031,28.031,0,0,1,28,27.95h-158A28.031,28.031,0,0,1,271.46,27.5ZM284.7,428.64V480.5a4,4,0,0,1-4,4H114.54a4,4,0,0,1-4-4V428.64a4,4,0,0,1,4-4H280.7A4,4,0,0,1,284.7,428.64Zm-145.58-16V251.83a28.447,28.447,0,0,1,7.956-19.814l84.384-67.207V229.28l-53.734,42.546a6,6,0,1,0,7.449,9.408l78.99-62.544,2.342,2.343a20.009,20.009,0,0,1,0,28.254l-36.73,36.73a6,6,0,0,0-1.747,3.892l-.469,8.01c-.007.117-.011.234-.011.351a38.6,38.6,0,0,0,1.065,8.949,43.869,43.869,0,0,0,2.935,8.333,41.038,41.038,0,0,1-2.992,40,6,6,0,0,0-1.008,3.329v17.31a6,6,0,0,0,12,0V360.636a53.178,53.178,0,0,0,7.219-35.7A39.783,39.783,0,0,0,271.46,333.5h25.36v25.38a28.662,28.662,0,0,1-28.63,28.63,6,6,0,0,0-6,6v19.13Z" style="fill:#63316d"/><path d="M142.21,474.85a19.425,19.425,0,1,0-18.99-19.42A19.23,19.23,0,0,0,142.21,474.85Zm0-26.84a7.433,7.433,0,1,1-6.99,7.42A7.223,7.223,0,0,1,142.21,448.01Z" style="fill:#63316d"/><path d="M338.18,287.5H306.73a6,6,0,0,0,0,12h31.45a6,6,0,1,0,0-12Z" style="fill:#63316d"/><path d="M317.36,212.468a6,6,0,0,0,4.354,1.942h.066a6,6,0,0,0,4.329-1.845l30.037-31.3a50.411,50.411,0,0,0,11.017-17.1,47.258,47.258,0,0,0,3.058-19.393C368.787,119.134,348.043,98.83,323,98.55h0l-.52,0c-24.821,0-45.731,19.745-47.718,45.179a47.123,47.123,0,0,0,2.633,19.457,50.351,50.351,0,0,0,10.63,17.325Zm-30.638-67.811c1.315-16.837,15.019-34.11,35.725-34.11l.415,0c20.936.234,34.428,17.926,35.377,34.89a35.342,35.342,0,0,1-2.3,14.491,38.522,38.522,0,0,1-8.446,13.025l-25.613,26.689-25.02-27.253a38.515,38.515,0,0,1-8.151-13.2A35.207,35.207,0,0,1,286.722,144.657Z" style="fill:#63316d"/><path d="M322.224,168.56h.267a23.525,23.525,0,0,0,16.787-7.022,24.5,24.5,0,0,0,7.142-17.124,24.209,24.209,0,0,0-23.663-24.674l-.269,0a23.533,23.533,0,0,0-16.787,7.022,24.506,24.506,0,0,0-7.141,17.125A24.209,24.209,0,0,0,322.224,168.56Zm-8.018-33.333a11.629,11.629,0,0,1,8.287-3.488h.131a12.2,12.2,0,0,1,11.8,12.545,12.561,12.561,0,0,1-3.647,8.788,11.62,11.62,0,0,1-8.287,3.488h-.13a12.2,12.2,0,0,1-11.8-12.546A12.566,12.566,0,0,1,314.206,135.227Z" style="fill:#63316d"/></svg>
