<svg width="48" height="34" viewBox="0 0 48 34" fill="none" xmlns="http://www.w3.org/2000/svg">
<rect x="6.5" y="1.2327" width="35" height="25.0504" rx="1.5" fill="#C4C4C4" fill-opacity="0.78" stroke="black"/>
<path d="M22.2 4.87708C20.4 4.87708 18.6 6.06118 18 6.65324V7.24529L24.6 24.4149L28.2 23.8228L32.4 20.8625L34.2 17.3102V11.9817L32.4 7.83734L28.2 4.87708H22.2Z" fill="#434343"/>
<rect y="13.7579" width="4.8" height="1.18411" fill="black"/>
<mask id="path-4-inside-1" fill="white">
<path fill-rule="evenodd" clip-rule="evenodd" d="M8.74417 1.83275C7.43024 1.30604 6 2.27358 6 3.68915V25.4147C6 26.2397 6.50649 26.98 7.27538 27.2788L23.0069 33.394C24.3363 33.9108 25.7638 32.9098 25.731 31.4839L25.5682 24.4149H26.8C31.2183 24.4149 34.8 20.8331 34.8 16.4148V12.285C34.8 7.86674 31.2183 4.28502 26.8 4.28502H22.4C20.7987 4.28502 19.3073 4.75549 18.0564 5.56575L8.74417 1.83275ZM25.5451 23.4149L25.2304 9.74871C25.212 8.94843 24.7181 8.23622 23.9751 7.93837L19.2367 6.03888C20.1868 5.55675 21.2616 5.28502 22.4 5.28502H26.8C30.666 5.28502 33.8 8.41902 33.8 12.285V16.4148C33.8 20.2808 30.666 23.4149 26.8 23.4149H25.5451Z"/>
</mask>
<path fill-rule="evenodd" clip-rule="evenodd" d="M8.74417 1.83275C7.43024 1.30604 6 2.27358 6 3.68915V25.4147C6 26.2397 6.50649 26.98 7.27538 27.2788L23.0069 33.394C24.3363 33.9108 25.7638 32.9098 25.731 31.4839L25.5682 24.4149H26.8C31.2183 24.4149 34.8 20.8331 34.8 16.4148V12.285C34.8 7.86674 31.2183 4.28502 26.8 4.28502H22.4C20.7987 4.28502 19.3073 4.75549 18.0564 5.56575L8.74417 1.83275ZM25.5451 23.4149L25.2304 9.74871C25.212 8.94843 24.7181 8.23622 23.9751 7.93837L19.2367 6.03888C20.1868 5.55675 21.2616 5.28502 22.4 5.28502H26.8C30.666 5.28502 33.8 8.41902 33.8 12.285V16.4148C33.8 20.2808 30.666 23.4149 26.8 23.4149H25.5451Z" fill="#5FF188"/>
<path d="M8.74417 1.83275L9.11626 0.904556L8.74417 1.83275ZM7.27538 27.2788L6.91306 28.2109L6.91306 28.2109L7.27538 27.2788ZM23.0069 33.394L23.3692 32.462L23.0069 33.394ZM25.731 31.4839L26.7307 31.4608L25.731 31.4839ZM25.5682 24.4149V23.4149H24.5449L24.5684 24.4379L25.5682 24.4149ZM18.0564 5.56575L17.6843 6.49395L18.1652 6.68673L18.6001 6.40505L18.0564 5.56575ZM25.2304 9.74871L24.2306 9.77174V9.77174L25.2304 9.74871ZM25.5451 23.4149L24.5454 23.4379L24.5679 24.4149H25.5451V23.4149ZM23.9751 7.93837L24.3472 7.01017L23.9751 7.93837ZM19.2367 6.03888L18.7841 5.14712L16.816 6.14586L18.8646 6.96707L19.2367 6.03888ZM7 3.68915C7 2.98137 7.71512 2.4976 8.37209 2.76095L9.11626 0.904556C7.14536 0.114483 5 1.5658 5 3.68915H7ZM7 25.4147V3.68915H5V25.4147H7ZM7.63769 26.3468C7.25325 26.1973 7 25.8272 7 25.4147H5C5 26.6521 5.75974 27.7626 6.91306 28.2109L7.63769 26.3468ZM23.3692 32.462L7.63769 26.3468L6.91306 28.2109L22.6446 34.3261L23.3692 32.462ZM24.7313 31.5069C24.7477 32.2199 24.0339 32.7204 23.3692 32.462L22.6446 34.3261C24.6387 35.1012 26.78 33.5997 26.7307 31.4608L24.7313 31.5069ZM24.5684 24.4379L24.7313 31.5069L26.7307 31.4608L26.5679 24.3918L24.5684 24.4379ZM25.5682 25.4149H26.8V23.4149H25.5682V25.4149ZM26.8 25.4149C31.7706 25.4149 35.8 21.3854 35.8 16.4148H33.8C33.8 20.2808 30.666 23.4149 26.8 23.4149V25.4149ZM35.8 16.4148V12.285H33.8V16.4148H35.8ZM35.8 12.285C35.8 7.31446 31.7706 3.28502 26.8 3.28502V5.28502C30.666 5.28502 33.8 8.41902 33.8 12.285H35.8ZM26.8 3.28502H22.4V5.28502H26.8V3.28502ZM22.4 3.28502C20.6 3.28502 18.9206 3.81447 17.5127 4.72645L18.6001 6.40505C19.6939 5.69651 20.9974 5.28502 22.4 5.28502V3.28502ZM8.37209 2.76095L17.6843 6.49395L18.4285 4.63756L9.11626 0.904556L8.37209 2.76095ZM24.2306 9.77174L24.5454 23.4379L26.5449 23.3918L26.2301 9.72569L24.2306 9.77174ZM23.603 8.86657C23.9745 9.0155 24.2214 9.3716 24.2306 9.77174L26.2301 9.72569C26.2025 8.52526 25.4617 7.45695 24.3472 7.01017L23.603 8.86657ZM18.8646 6.96707L23.603 8.86657L24.3472 7.01017L19.6087 5.11068L18.8646 6.96707ZM22.4 4.28502C21.1008 4.28502 19.8712 4.59547 18.7841 5.14712L19.6892 6.93063C20.5023 6.51802 21.4225 6.28502 22.4 6.28502V4.28502ZM26.8 4.28502H22.4V6.28502H26.8V4.28502ZM34.8 12.285C34.8 7.86674 31.2183 4.28502 26.8 4.28502V6.28502C30.1137 6.28502 32.8 8.97131 32.8 12.285H34.8ZM34.8 16.4148V12.285H32.8V16.4148H34.8ZM26.8 24.4149C31.2183 24.4149 34.8 20.8331 34.8 16.4148H32.8C32.8 19.7286 30.1137 22.4149 26.8 22.4149V24.4149ZM25.5451 24.4149H26.8V22.4149H25.5451V24.4149Z" fill="black" mask="url(#path-4-inside-1)"/>
<rect x="43.2" y="13.7579" width="4.8" height="1.18411" fill="black"/>
<rect x="36.5" y="11.8897" width="2.6" height="4.92054" rx="1.3" stroke="black"/>
</svg>
