<svg id="Layer_3" enable-background="new 0 0 64 64" height="512" viewBox="0 0 64 64" width="512" xmlns="http://www.w3.org/2000/svg"><g><path d="m32 56h6v6h-6z" fill="#4d5d7a"/><path d="m6 62v-6h6v6" fill="#4d5d7a"/><path d="m36 48 4 2v4c0 2.209-1.791 4-4 4h-28c-2.209 0-4-1.791-4-4v-4l4-2z" fill="#c66b60"/><path d="m6 49 6 2v3h-8v-4" fill="#f9d18b"/><path d="m38 49-6 2v3h8v-4" fill="#f9d18b"/><path d="m36 48-3.894-7.789c-.678-1.355-2.063-2.211-3.578-2.211h-13.056c-1.515 0-2.9.856-3.578 2.211l-3.894 7.789" fill="#c7e2fc"/><path d="m14 46c6.351 0 11.706-3.376 13.42-8h-11.948c-1.515 0-2.9.856-3.578 2.211l-2.569 5.137c1.464.415 3.033.652 4.675.652z" fill="#ebf7fe"/><path d="m40 50h2v-4h-4l-2 2" fill="#8892a0"/><path d="m4 50h-2v-4h4l2 2" fill="#8892a0"/><path d="m45 26h8v6h-8z" fill="#976947"/><path d="m45 58h8v4h-8z" fill="#976947"/><path d="m47 32h4v26h-4z" fill="#c18e59"/><circle cx="49" cy="15" fill="#2b74ca" r="13"/><path d="m36 15c0 2.753.861 5.302 2.321 7.404 1.324.384 2.725.596 4.179.596 8.008 0 14.5-6.268 14.5-14 0-1.727-.339-3.374-.932-4.901-2.035-1.323-4.459-2.099-7.068-2.099-7.18 0-13 5.82-13 13z" fill="#3d98f7"/><g><path d="m1 61h62v2h-62z" fill="#8892a0"/></g><g><path d="m47 23h-2v-14c0-.553.448-1 1-1h5c2.206 0 4 1.794 4 4s-1.794 4-4 4h-4zm0-9h4c1.103 0 2-.897 2-2s-.897-2-2-2h-4z" fill="#fff"/></g><g><path d="m15 53h14v2h-14z" fill="#fff"/></g></g></svg>