<svg id="Layer_5" enable-background="new 0 0 64 64" height="512" viewBox="0 0 64 64" width="512" xmlns="http://www.w3.org/2000/svg"><path d="m11 29v-14h3.432v-2h-3.432c-1.103 0-2 .897-2 2v14c0 1.103.897 2 2 2h24c1.103 0 2-.897 2-2v-14c0-1.103-.897-2-2-2h-3.431v2h3.431v14z"/><path d="m62.498 16.338c-.557-.838-1.49-1.338-2.498-1.338-.592 0-1.167.174-1.664.504l-4.219 2.812c-1.952 1.301-3.117 3.479-3.117 5.825v5.044c-1.161.414-2 1.514-2 2.816v13h4v14c0 1.103-.897 2-2 2s-2-.897-2-2v-8c0-2.206-1.794-4-4-4h-4v-33.001c0-2.757-2.243-5-5-5h-6.667v2h6.667c1.654 0 3 1.346 3 3v41h-2v-22h-28v22h-2v-41c0-1.654 1.346-3 3-3h6.667v-2h-6.667c-2.757 0-5 2.243-5 5v41.101c-2.279.465-4 2.485-4 4.899v3h44v-3c0-2.414-1.721-4.434-4-4.899v-6.101h4c1.103 0 2 .897 2 2v8c0 2.206 1.794 4 4 4s4-1.794 4-4v-14h2v-5c0-1.654 1.346-3 3-3h1v-5c0-1.654-1.346-3-3-3h-1v-4.859c0-.335.167-.646.445-.832l4.219-2.812c1.376-.917 1.75-2.783.834-4.159zm-51.498 18.662h24v20h-11v-11h-2v11h-11zm32 25v1h-40v-1c0-1.654 1.346-3 3-3h34c1.654 0 3 1.346 3 3zm16-28v3.101c-2.279.465-4 2.484-4 4.899v3h-4v-11c0-.552.448-1 1-1h6c.552 0 1 .448 1 1zm1.555-13.168-4.219 2.812c-.837.559-1.336 1.492-1.336 2.497v4.859h-2v-4.859c0-1.676.832-3.23 2.227-4.16l4.217-2.812c.451-.299 1.095-.168 1.39.276.304.459.18 1.081-.279 1.387z"/><path d="m23 27c-5.514 0-10-4.486-10-10v-.275c0-1.98.581-3.898 1.68-5.547l5.934-8.9c.533-.8 1.425-1.278 2.386-1.278s1.853.478 2.387 1.277l5.934 8.9c1.099 1.648 1.68 3.566 1.68 5.547v.276c-.001 5.514-4.487 10-10.001 10z" fill="#f0bc5e"/><path d="m24 15h-2c-.552 0-1-.448-1-1v-1h3c.552 0 1 .448 1 1h2c0-1.654-1.346-3-3-3v-2h-2v2h-3v3c0 1.654 1.346 3 3 3h2c.552 0 1 .448 1 1v1h-3c-.552 0-1-.448-1-1h-2c0 1.654 1.346 3 3 3v2h2v-2h3v-3c0-1.654-1.346-3-3-3z"/><g fill="#f0bc5e"><path d="m23 44c0-3.309 2.691-6 6-6h4c0 3.309-2.691 6-6 6z"/><path d="m19 44c-3.309 0-6-2.691-6-6h4c3.309 0 6 2.691 6 6z"/><path d="m16 52c-2.206 0-4-1.794-4-4h6c2.206 0 4 1.794 4 4z"/></g></svg>