<svg width="29" height="28" viewBox="0 0 29 28" fill="none" xmlns="http://www.w3.org/2000/svg">
<circle cx="14.345" cy="13.931" r="13.7586" fill="#C4C4C4"/>
<path d="M21.1876 18.9332C21.6292 18.9332 21.9884 19.297 21.9884 19.7444C21.9884 20.1926 21.6292 20.5556 21.1876 20.5556H16.6614C16.2198 20.5556 15.8606 20.1926 15.8606 19.7444C15.8606 19.297 16.2198 18.9332 16.6614 18.9332H21.1876ZM18.0487 6.8415L19.2179 7.7703C19.6974 8.14522 20.017 8.63945 20.1263 9.15923C20.2525 9.731 20.1179 10.2925 19.7394 10.7782L12.7746 19.785C12.455 20.194 11.984 20.4241 11.4793 20.4326L8.70345 20.4667C8.55204 20.4667 8.42587 20.3644 8.39222 20.2196L7.76135 17.4843C7.652 16.9816 7.76135 16.4618 8.08099 16.0613L13.0186 9.6705C13.1027 9.56824 13.2541 9.55205 13.355 9.62789L15.4327 11.281C15.5673 11.3918 15.7523 11.4514 15.9458 11.4258C16.358 11.3747 16.6356 10.9998 16.5935 10.5993C16.5683 10.3948 16.4673 10.2244 16.3327 10.0965C16.2907 10.0625 14.314 8.47755 14.314 8.47755C14.1878 8.37529 14.1626 8.18783 14.2635 8.06087L15.0458 7.04601C15.7692 6.11721 17.0309 6.032 18.0487 6.8415Z" fill="#3D3D3D"/>
</svg>
