<?xml version="1.0" encoding="iso-8859-1"?>
<!-- Generator: Adobe Illustrator 19.0.0, SVG Export Plug-In . SVG Version: 6.00 Build 0)  -->
<svg version="1.1" id="Capa_1" xmlns="http://www.w3.org/2000/svg" xmlns:xlink="http://www.w3.org/1999/xlink" x="0px" y="0px"
	 viewBox="0 0 512 512" style="enable-background:new 0 0 512 512;" xml:space="preserve">
<g>
	<g>
		<path d="M396,0H116C82.916,0,56,26.916,56,60v176c0,11.046,8.954,20,20,20h20v136c0,11.046,8.954,20,20,20h50v80
			c0,11.046,8.954,20,20,20s20-8.954,20-20v-80h100v80c0,11.046,8.954,20,20,20c11.046,0,20-8.954,20-20v-80h50
			c11.046,0,20-8.954,20-20V256h20c11.046,0,20-8.954,20-20V60C456,26.916,429.084,0,396,0z M376,372H136V256h240V372z M416,216
			c-11.142,0-308.636,0-320,0V60c0-11.028,8.972-20,20-20h280c11.028,0,20,8.972,20,20V216z"/>
	</g>
</g>
<g>
</g>
<g>
</g>
<g>
</g>
<g>
</g>
<g>
</g>
<g>
</g>
<g>
</g>
<g>
</g>
<g>
</g>
<g>
</g>
<g>
</g>
<g>
</g>
<g>
</g>
<g>
</g>
<g>
</g>
</svg>
