<svg width="48" height="34" viewBox="0 0 48 34" fill="none" xmlns="http://www.w3.org/2000/svg">
<rect x="6.5" y="1" width="35" height="25.0504" rx="1.5" fill="#F2FDF8" stroke="black"/>
<path d="M22.2 4.64437C20.4 4.64437 18.6 5.82848 18 6.42053V7.01259L24.6 24.1821L28.2 23.5901L32.4 20.6298L34.2 17.0775V11.749L32.4 7.60464L28.2 4.64437H22.2Z" fill="#69E5AF"/>
<rect y="13.5252" width="4.8" height="1.18411" fill="black"/>
<mask id="path-4-inside-1" fill="white">
<path fill-rule="evenodd" clip-rule="evenodd" d="M8.74417 1.60006C7.43024 1.07334 6 2.04089 6 3.45646V25.182C6 26.007 6.50649 26.7473 7.27538 27.0461L23.0069 33.1613C24.3363 33.6781 25.7638 32.6771 25.731 31.2512L25.5682 24.1822H26.8C31.2183 24.1822 34.8 20.6004 34.8 16.1821V12.0523C34.8 7.63404 31.2183 4.05232 26.8 4.05232H22.4C20.7987 4.05232 19.3073 4.5228 18.0564 5.33306L8.74417 1.60006ZM25.5451 23.1822L25.2304 9.51602C25.212 8.71573 24.7181 8.00353 23.9751 7.70567L19.2367 5.80618C20.1868 5.32405 21.2616 5.05232 22.4 5.05232H26.8C30.666 5.05232 33.8 8.18633 33.8 12.0523V16.1821C33.8 20.0481 30.666 23.1822 26.8 23.1822H25.5451Z"/>
</mask>
<path fill-rule="evenodd" clip-rule="evenodd" d="M8.74417 1.60006C7.43024 1.07334 6 2.04089 6 3.45646V25.182C6 26.007 6.50649 26.7473 7.27538 27.0461L23.0069 33.1613C24.3363 33.6781 25.7638 32.6771 25.731 31.2512L25.5682 24.1822H26.8C31.2183 24.1822 34.8 20.6004 34.8 16.1821V12.0523C34.8 7.63404 31.2183 4.05232 26.8 4.05232H22.4C20.7987 4.05232 19.3073 4.5228 18.0564 5.33306L8.74417 1.60006ZM25.5451 23.1822L25.2304 9.51602C25.212 8.71573 24.7181 8.00353 23.9751 7.70567L19.2367 5.80618C20.1868 5.32405 21.2616 5.05232 22.4 5.05232H26.8C30.666 5.05232 33.8 8.18633 33.8 12.0523V16.1821C33.8 20.0481 30.666 23.1822 26.8 23.1822H25.5451Z" fill="white"/>
<path d="M8.74417 1.60006L9.11626 0.671859L8.74417 1.60006ZM7.27538 27.0461L6.91306 27.9782L6.91306 27.9782L7.27538 27.0461ZM23.0069 33.1613L23.3692 32.2293L23.0069 33.1613ZM25.731 31.2512L26.7307 31.2282L25.731 31.2512ZM25.5682 24.1822V23.1822H24.5449L24.5684 24.2052L25.5682 24.1822ZM18.0564 5.33306L17.6843 6.26125L18.1652 6.45404L18.6001 6.17236L18.0564 5.33306ZM25.2304 9.51602L24.2306 9.53904V9.53904L25.2304 9.51602ZM25.5451 23.1822L24.5454 23.2052L24.5679 24.1822H25.5451V23.1822ZM23.9751 7.70567L24.3472 6.77748L23.9751 7.70567ZM19.2367 5.80618L18.7841 4.91443L16.816 5.91316L18.8646 6.73438L19.2367 5.80618ZM7 3.45646C7 2.74867 7.71512 2.2649 8.37209 2.52826L9.11626 0.671859C7.14536 -0.118214 5 1.3331 5 3.45646H7ZM7 25.182V3.45646H5V25.182H7ZM7.63769 26.1141C7.25325 25.9646 7 25.5945 7 25.182H5C5 26.4194 5.75974 27.5299 6.91306 27.9782L7.63769 26.1141ZM23.3692 32.2293L7.63769 26.1141L6.91306 27.9782L22.6446 34.0934L23.3692 32.2293ZM24.7313 31.2742C24.7477 31.9872 24.0339 32.4877 23.3692 32.2293L22.6446 34.0934C24.6387 34.8685 26.78 33.367 26.7307 31.2282L24.7313 31.2742ZM24.5684 24.2052L24.7313 31.2742L26.7307 31.2282L26.5679 24.1591L24.5684 24.2052ZM25.5682 25.1822H26.8V23.1822H25.5682V25.1822ZM26.8 25.1822C31.7706 25.1822 35.8 21.1527 35.8 16.1821H33.8C33.8 20.0481 30.666 23.1822 26.8 23.1822V25.1822ZM35.8 16.1821V12.0523H33.8V16.1821H35.8ZM35.8 12.0523C35.8 7.08176 31.7706 3.05232 26.8 3.05232V5.05232C30.666 5.05232 33.8 8.18633 33.8 12.0523H35.8ZM26.8 3.05232H22.4V5.05232H26.8V3.05232ZM22.4 3.05232C20.6 3.05232 18.9206 3.58178 17.5127 4.49376L18.6001 6.17236C19.6939 5.46381 20.9974 5.05232 22.4 5.05232V3.05232ZM8.37209 2.52826L17.6843 6.26125L18.4285 4.40486L9.11626 0.671859L8.37209 2.52826ZM24.2306 9.53904L24.5454 23.2052L26.5449 23.1591L26.2301 9.49299L24.2306 9.53904ZM23.603 8.63387C23.9745 8.7828 24.2214 9.1389 24.2306 9.53904L26.2301 9.49299C26.2025 8.29256 25.4617 7.22426 24.3472 6.77748L23.603 8.63387ZM18.8646 6.73438L23.603 8.63387L24.3472 6.77748L19.6087 4.87798L18.8646 6.73438ZM22.4 4.05232C21.1008 4.05232 19.8712 4.36277 18.7841 4.91443L19.6892 6.69793C20.5023 6.28533 21.4225 6.05232 22.4 6.05232V4.05232ZM26.8 4.05232H22.4V6.05232H26.8V4.05232ZM34.8 12.0523C34.8 7.63404 31.2183 4.05232 26.8 4.05232V6.05232C30.1137 6.05232 32.8 8.73861 32.8 12.0523H34.8ZM34.8 16.1821V12.0523H32.8V16.1821H34.8ZM26.8 24.1822C31.2183 24.1822 34.8 20.6004 34.8 16.1821H32.8C32.8 19.4959 30.1137 22.1822 26.8 22.1822V24.1822ZM25.5451 24.1822H26.8V22.1822H25.5451V24.1822Z" fill="black" mask="url(#path-4-inside-1)"/>
<rect x="43.2" y="13.5252" width="4.8" height="1.18411" fill="black"/>
<rect x="36.5" y="11.657" width="2.6" height="4.92054" rx="1.3" stroke="black"/>
</svg>
