<svg id="Layer_1" enable-background="new 0 0 512.023 512.023" height="512" viewBox="0 0 512.023 512.023" width="512" xmlns="http://www.w3.org/2000/svg"><g><path d="m252.011.023c-15.439 0-28 12.561-28 28v84c0 4.418 3.582 8 8 8h40c4.418 0 8-3.582 8-8v-84c0-15.44-12.56-28-28-28z" fill="#f1cc76"/><path d="m404.011.023c-15.439 0-28 12.561-28 28v84c0 4.418 3.582 8 8 8h40c4.418 0 8-3.582 8-8v-84c0-15.44-12.56-28-28-28z" fill="#f1cc76"/><path d="m432.011 28.023v84c0 4.42-3.58 8-8 8h-24c4.42 0 8-3.58 8-8v-84c0-11.15-6.55-20.79-16-25.29 18.365-8.779 40 4.642 40 25.29z" fill="#ebb15d"/><path d="m280.011 28.023v84c0 4.42-3.58 8-8 8h-24c4.42 0 8-3.58 8-8v-84c0-11.15-6.55-20.79-16-25.29 18.365-8.779 40 4.642 40 25.29z" fill="#ebb15d"/><path d="m344.011 400.023h-32c-4.418 0-8 3.582-8 8v34c0 12.131-9.869 22-22 22h-140c-12.131 0-22-9.869-22-22v-78c0-4.418-3.582-8-8-8h-32c-4.418 0-8 3.582-8 8v80c0 37.495 30.505 68 68 68h144c37.495 0 68-30.505 68-68v-36c0-4.419-3.581-8-8-8z" fill="#595965"/><path d="m142.011 464.023h-16c-12.13 0-22-9.87-22-22v-78c0-4.42-3.58-8-8-8h16c4.42 0 8 3.58 8 8v78c0 12.13 9.87 22 22 22z" fill="#44454e"/><path d="m352.011 408.023v36c0 37.5-30.5 68-68 68h-16c37.5 0 68-30.5 68-68v-36c0-4.42-3.58-8-8-8h16c4.42 0 8 3.58 8 8z" fill="#44454e"/><circle cx="96.011" cy="336.023" fill="#f1cc76" r="40"/><path d="m136.011 336.023c0 28.9-29.808 48.153-56 36.66 31.952-13.984 31.939-59.341 0-73.32 26.153-11.475 56 7.712 56 36.66z" fill="#ebb15d"/><path d="m368.011 344.023h-80c-4.418 0-8 3.582-8 8v32c0 17.645 14.355 32 32 32h32c17.645 0 32-14.355 32-32v-32c0-4.419-3.581-8-8-8z" fill="#edebfd"/><path d="m376.011 352.023v32c0 17.65-14.35 32-32 32h-32c17.65 0 32-14.35 32-32v-32c0-4.42-3.58-8-8-8h32c4.42 0 8 3.58 8 8z" fill="#d2d2fc"/><path d="m432.011 144.023h-208c-4.418 0-8 3.582-8 8v104c0 61.757 50.243 112 112 112s112-50.243 112-112v-104c0-4.419-3.581-8-8-8z" fill="#edebfd"/><path d="m440.011 152.023v104c0 68.105-60.657 120.652-128 110.85 54.21-7.78 96-54.52 96-110.85v-104c0-4.42-3.58-8-8-8h32c4.42 0 8 3.58 8 8z" fill="#d2d2fc"/><path d="m372.011 232.024h-32v-48c0-8.262-11.07-11.079-15.023-3.831l-48 88c-2.902 5.32.952 11.831 7.023 11.831h32v48c0 8.276 11.08 11.06 15.023 3.831l48-88c2.901-5.32-.953-11.831-7.023-11.831z" fill="#79cb9c"/><path d="m340.011 232.024h-24v-35.37l8.98-16.46c3.953-7.251 15.02-4.432 15.02 3.83z" fill="#63ac7d"/><path d="m379.031 243.854-48 88c-3.945 7.251-15.02 4.428-15.02-3.83v-12.63l39.02-71.54c2.912-5.311-.952-11.83-7.02-11.83h24c6.057 0 9.937 6.51 7.02 11.83z" fill="#63ac7d"/><path d="m428.011 104.023h-200c-15.439 0-28 12.561-28 28s12.561 28 28 28h200c15.439 0 28-12.561 28-28s-12.56-28-28-28z" fill="#edebfd"/><path d="m456.011 132.023c0 15.44-12.56 28-28 28h-40c15.44 0 28-12.56 28-28s-12.56-28-28-28h40c15.44 0 28 12.56 28 28z" fill="#d2d2fc"/></g></svg>