<svg width="44" height="42" viewBox="0 0 44 42" fill="none" xmlns="http://www.w3.org/2000/svg">
<path d="M7.8778 39.4656C7.6633 40.6866 8.8678 41.6409 9.9293 41.0964L22.0018 34.8924L34.0715 41.0964C35.133 41.6409 36.3375 40.6866 36.123 39.4684L33.8405 26.4609L43.526 17.2319C44.4335 16.3684 43.966 14.7899 42.7505 14.6194L29.281 12.7054L23.275 0.806145C23.1606 0.56494 22.9801 0.361149 22.7545 0.218449C22.5289 0.07575 22.2674 0 22.0004 0C21.7335 0 21.472 0.07575 21.2463 0.218449C21.0207 0.361149 20.8402 0.56494 20.7258 0.806145L14.7198 12.7081L1.2503 14.6221C0.0375469 14.7926 -0.432703 16.3711 0.472047 17.2346L10.1603 26.4636L7.8778 39.4711V39.4656ZM21.3665 31.8564L11.23 37.0649L13.1385 26.1831C13.1833 25.9327 13.1658 25.675 13.0876 25.4329C13.0094 25.1907 12.873 24.9715 12.6903 24.7944L4.6988 17.1769L15.8418 15.5929C16.0725 15.5581 16.2914 15.4678 16.4796 15.3299C16.6678 15.1919 16.8198 15.0104 16.9225 14.8009L21.9963 4.7414L27.0755 14.8009C27.1783 15.0104 27.3303 15.1919 27.5185 15.3299C27.7067 15.4678 27.9256 15.5581 28.1563 15.5929L39.2993 17.1741L31.3078 24.7916C31.1247 24.969 30.988 25.1887 30.9098 25.4314C30.8316 25.6741 30.8144 25.9322 30.8595 26.1831L32.768 37.0649L22.6315 31.8564C22.4355 31.7553 22.2182 31.7026 21.9977 31.7026C21.7771 31.7026 21.5598 31.7553 21.3638 31.8564H21.3665Z" fill="#082B1C"/>
</svg>
