<svg width="76" height="76" viewBox="0 0 76 76" fill="none" xmlns="http://www.w3.org/2000/svg">
<path d="M38.0001 16.2857C35.316 16.2857 32.6921 17.0817 30.4603 18.5729C28.2285 20.0642 26.489 22.1837 25.4618 24.6636C24.4346 27.1434 24.1658 29.8722 24.6895 32.5048C25.2131 35.1374 26.5057 37.5556 28.4037 39.4536C30.3017 41.3516 32.7199 42.6441 35.3525 43.1678C37.9851 43.6914 40.7139 43.4227 43.1937 42.3955C45.6736 41.3683 47.7931 39.6288 49.2844 37.397C50.7756 35.1652 51.5716 32.5413 51.5716 29.8571C51.5716 26.2578 50.1417 22.8058 47.5966 20.2607C45.0515 17.7155 41.5995 16.2857 38.0001 16.2857Z" fill="#434343"/>
<path d="M38 0C30.4843 0 23.1374 2.22866 16.8883 6.40415C10.6393 10.5796 5.76872 16.5144 2.89259 23.458C0.0164648 30.4016 -0.736062 38.0421 0.730176 45.4134C2.19641 52.7847 5.81556 59.5556 11.13 64.87C16.4444 70.1844 23.2153 73.8036 30.5866 75.2698C37.9579 76.7361 45.5984 75.9835 52.542 73.1074C59.4856 70.2313 65.4204 65.3607 69.5958 59.1117C73.7713 52.8626 76 45.5157 76 38C75.9885 27.9253 71.9813 18.2665 64.8574 11.1426C57.7335 4.01874 48.0747 0.0114942 38 0ZM59.6926 62.2277C59.6385 58.6675 58.1879 55.271 55.6535 52.77C53.119 50.2691 49.7035 48.8638 46.1429 48.8571H29.8572C26.2965 48.8638 22.881 50.2691 20.3465 52.77C17.8121 55.271 16.3615 58.6675 16.3074 62.2277C11.3853 57.8326 7.91414 52.0461 6.35371 45.6344C4.79328 39.2227 5.21714 32.4882 7.56918 26.3228C9.92121 20.1573 14.0905 14.8517 19.5249 11.1084C24.9593 7.36512 31.4025 5.36078 38.0014 5.36078C44.6002 5.36078 51.0434 7.36512 56.4779 11.1084C61.9123 14.8517 66.0815 20.1573 68.4336 26.3228C70.7856 32.4882 71.2094 39.2227 69.649 45.6344C68.0886 52.0461 64.6175 57.8326 59.6953 62.2277H59.6926Z" fill="#434343"/>
</svg>
