<svg width="204" height="55" viewBox="0 0 204 55" fill="none" xmlns="http://www.w3.org/2000/svg">
<path d="M49.2682 17.08C53.9482 17.08 57.5666 18.4883 60.1232 21.305C62.7232 24.1217 64.0232 27.935 64.0232 32.745V54H49.6582V34.565C49.6582 33.005 49.1816 31.7917 48.2282 30.925C47.3182 30.015 46.0832 29.56 44.5232 29.56C42.9199 29.56 41.6632 30.015 40.7532 30.925C39.8432 31.7917 39.3882 33.005 39.3882 34.565V54H25.0232V34.565C25.0232 33.005 24.5466 31.7917 23.5932 30.925C22.6832 30.015 21.4482 29.56 19.8882 29.56C18.2849 29.56 17.0282 30.015 16.1182 30.925C15.2082 31.7917 14.7532 33.005 14.7532 34.565V54H0.323242V17.34H14.7532V22.28C15.7932 20.72 17.2016 19.4633 18.9782 18.51C20.7982 17.5567 22.9216 17.08 25.3482 17.08C27.9916 17.08 30.3316 17.665 32.3682 18.835C34.4049 19.9617 36.0299 21.565 37.2432 23.645C38.5866 21.7383 40.2982 20.1783 42.3782 18.965C44.4582 17.7083 46.7549 17.08 49.2682 17.08ZM77.5544 14.415C75.0411 14.415 73.0261 13.7433 71.5094 12.4C69.9927 11.0567 69.2344 9.36667 69.2344 7.33C69.2344 5.25 69.9927 3.53833 71.5094 2.195C73.0261 0.80833 75.0411 0.114996 77.5544 0.114996C80.0244 0.114996 82.0177 0.80833 83.5344 2.195C85.0511 3.53833 85.8094 5.25 85.8094 7.33C85.8094 9.36667 85.0511 11.0567 83.5344 12.4C82.0177 13.7433 80.0244 14.415 77.5544 14.415ZM84.7044 17.34V54H70.2744V17.34H84.7044ZM130.027 17.34V54H115.597V48.41C114.47 50.1433 112.953 51.5517 111.047 52.635C109.183 53.7183 106.952 54.26 104.352 54.26C100.148 54.26 96.855 52.8517 94.4717 50.035C92.1317 47.2183 90.9617 43.405 90.9617 38.595V17.34H105.327V36.775C105.327 38.5083 105.782 39.895 106.692 40.935C107.645 41.9317 108.902 42.43 110.462 42.43C112.065 42.43 113.322 41.9317 114.232 40.935C115.142 39.895 115.597 38.5083 115.597 36.775V17.34H130.027ZM159.359 41.715V54H153.899C143.846 54 138.819 48.995 138.819 38.985V29.365H134.269V17.34H138.819V8.5H153.249V17.34H159.229V29.365H153.249V39.245C153.249 40.1117 153.444 40.74 153.834 41.13C154.267 41.52 154.961 41.715 155.914 41.715H159.359ZM203.659 17.34V54H189.229V48.41C188.103 50.1433 186.586 51.5517 184.679 52.635C182.816 53.7183 180.584 54.26 177.984 54.26C173.781 54.26 170.488 52.8517 168.104 50.035C165.764 47.2183 164.594 43.405 164.594 38.595V17.34H178.959V36.775C178.959 38.5083 179.414 39.895 180.324 40.935C181.278 41.9317 182.534 42.43 184.094 42.43C185.698 42.43 186.954 41.9317 187.864 40.935C188.774 39.895 189.229 38.5083 189.229 36.775V17.34H203.659Z" fill="#082B1C"/>
</svg>
